# Blender v2.76 (sub 0) OBJ File: 'simple_table.blend'
# www.blender.org
mtllib simple_table.mtl
o table__Cube.001
v 1.967568 1.962762 -1.025145
v 1.967568 2.029072 -1.025145
v 1.967569 1.962762 1.650871
v 1.967569 2.029072 1.650871
v -1.958567 1.962762 -1.025143
v -1.958567 2.029072 -1.025143
v -1.958566 1.962762 1.650872
v -1.958566 2.029072 1.650872
v 1.999727 1.995917 -1.047064
v 1.999728 1.995917 1.672790
v -1.990724 1.995917 1.672791
v -1.990725 1.995917 -1.047063
vt 0.366211 0.333333
vt 0.366211 0.000000
vt 0.488281 0.000000
vt 0.488281 0.333333
vt 0.244141 0.500000
vt 0.000000 0.500000
vt 0.000000 0.333333
vt 0.244141 0.333333
vt 0.122070 0.333333
vt 0.122070 0.000000
vt 0.244141 0.000000
vt 0.488281 0.500000
vt 0.488281 0.666667
vt 0.244141 0.666667
vt 0.732422 0.000000
vt 0.732422 0.333333
vt 0.702582 0.403408
vt 0.702582 -0.006075
vt 1.002496 -0.006075
vt 1.002496 0.403408
vt 0.000000 0.000000
vt 0.000000 0.666667
vn 0.717800 -0.696200 -0.000000
vn 0.000000 -0.551500 0.834200
vn -0.717800 -0.696200 0.000000
vn -0.000000 -0.551500 -0.834200
vn 0.000000 -1.000000 -0.000000
vn 0.000000 1.000000 0.000000
vn -0.000000 0.551500 -0.834200
vn -0.717800 0.696200 0.000000
vn 0.000000 0.551500 0.834200
vn 0.717800 0.696200 -0.000000
usemtl Material.003
s off
f 9/1/1 10/2/1 3/3/1 1/4/1
f 10/5/2 11/6/2 7/7/2 3/8/2
f 11/9/3 12/10/3 5/11/3 7/8/3
f 12/5/4 9/12/4 1/13/4 5/14/4
f 1/15/5 3/16/5 7/4/5 5/3/5
f 6/17/6 8/18/6 4/19/6 2/20/6
f 6/8/7 2/4/7 9/12/7 12/5/7
f 8/7/8 6/21/8 12/10/8 11/9/8
f 4/14/9 8/22/9 11/6/9 10/5/9
f 2/8/10 4/11/10 10/2/10 9/1/10
o Cube.002_Cube.009
v 1.746913 0.005916 -0.696465
v 1.776015 1.974662 -0.725567
v 1.746913 0.005916 -0.627680
v 1.776015 1.974662 -0.598577
v 1.678128 0.005916 -0.696465
v 1.649025 1.974662 -0.725567
v 1.678128 0.005916 -0.627680
v 1.649025 1.974662 -0.598577
vt 0.009697 0.736860
vt 0.009697 0.470193
vt 0.759697 0.531305
vt 0.759697 0.675747
vt 0.764422 0.694499
vt 0.764422 0.961166
vt 0.014422 0.900054
vt 0.014422 0.755612
vt 0.759115 0.248762
vt 0.759115 0.515429
vt 0.009115 0.454316
vt 0.009115 0.309874
vt 0.010690 0.288246
vt 0.010690 0.021579
vt 0.760690 0.082691
vt 0.760690 0.227134
vt 0.908332 0.156187
vt 0.908332 0.240787
vt 0.800000 0.240787
vt 0.800000 0.156187
vt 0.800000 0.000000
vt 1.000000 0.000000
vt 1.000000 0.156187
vn 0.581200 0.569600 -0.581200
vn 0.581200 0.569600 0.581200
vn 0.573400 -0.585100 0.573400
vn 0.573400 -0.585100 -0.573400
vn -0.581200 0.569600 0.581200
vn -0.573400 -0.585100 0.573400
vn -0.581200 0.569600 -0.581200
vn -0.573400 -0.585100 -0.573400
usemtl Material.005
s 1
f 14/23/11 16/24/12 15/25/13 13/26/14
f 16/27/12 20/28/15 19/29/16 15/30/13
f 20/31/15 18/32/17 17/33/18 19/34/16
f 18/35/17 14/36/11 13/37/14 17/38/18
f 13/39/14 15/40/13 19/41/16 17/42/18
f 18/43/17 20/44/15 16/45/12 14/42/11
o Cube.001_Cube.008
v 1.746913 0.005916 1.241545
v 1.776016 1.974662 1.212443
v 1.746913 0.005916 1.310330
v 1.776016 1.974662 1.339432
v 1.678128 0.005916 1.241545
v 1.649026 1.974662 1.212443
v 1.678128 0.005916 1.310330
v 1.649026 1.974662 1.339432
vt 0.009697 0.736860
vt 0.009697 0.470193
vt 0.759697 0.531305
vt 0.759697 0.675747
vt 0.764422 0.694499
vt 0.764422 0.961166
vt 0.014422 0.900054
vt 0.014422 0.755612
vt 0.759115 0.248762
vt 0.759115 0.515429
vt 0.009115 0.454316
vt 0.009115 0.309874
vt 0.010690 0.288246
vt 0.010690 0.021579
vt 0.760690 0.082691
vt 0.760690 0.227134
vt 0.908332 0.156187
vt 0.908332 0.240787
vt 0.800000 0.240787
vt 0.800000 0.156187
vt 0.800000 0.000000
vt 1.000000 0.000000
vt 1.000000 0.156187
vn 0.581200 0.569600 -0.581200
vn 0.581200 0.569600 0.581200
vn 0.573400 -0.585100 0.573400
vn 0.573400 -0.585100 -0.573400
vn -0.581200 0.569600 0.581200
vn -0.573400 -0.585100 0.573400
vn -0.581200 0.569600 -0.581200
vn -0.573400 -0.585100 -0.573400
usemtl Material.005
s 1
f 22/46/19 24/47/20 23/48/21 21/49/22
f 24/50/20 28/51/23 27/52/24 23/53/21
f 28/54/23 26/55/25 25/56/26 27/57/24
f 26/58/25 22/59/19 21/60/22 25/61/26
f 21/62/22 23/63/21 27/64/24 25/65/26
f 26/66/25 28/67/23 24/68/20 22/65/19
o Cube.003_Cube.007
v -1.682854 0.005916 1.241546
v -1.653752 1.974662 1.212444
v -1.682854 0.005916 1.310331
v -1.653752 1.974662 1.339434
v -1.751640 0.005916 1.241546
v -1.780742 1.974662 1.212444
v -1.751640 0.005916 1.310331
v -1.780742 1.974662 1.339434
vt 0.009697 0.736860
vt 0.009697 0.470193
vt 0.759697 0.531305
vt 0.759697 0.675747
vt 0.764422 0.694499
vt 0.764422 0.961166
vt 0.014422 0.900054
vt 0.014422 0.755612
vt 0.759115 0.248762
vt 0.759115 0.515429
vt 0.009115 0.454316
vt 0.009115 0.309874
vt 0.010690 0.288246
vt 0.010690 0.021579
vt 0.760690 0.082691
vt 0.760690 0.227134
vt 0.908332 0.156187
vt 0.908332 0.240787
vt 0.800000 0.240787
vt 0.800000 0.156187
vt 0.800000 0.000000
vt 1.000000 0.000000
vt 1.000000 0.156187
vn 0.999900 -0.014800 0.000000
vn 0.000000 -0.014800 0.999900
vn -0.999900 -0.014800 0.000000
vn 0.000000 -0.014800 -0.999900
vn 0.000000 -1.000000 0.000000
vn 0.000000 1.000000 0.000000
usemtl Material.005
s off
f 30/69/27 32/70/27 31/71/27 29/72/27
f 32/73/28 36/74/28 35/75/28 31/76/28
f 36/77/29 34/78/29 33/79/29 35/80/29
f 34/81/30 30/82/30 29/83/30 33/84/30
f 29/85/31 31/86/31 35/87/31 33/88/31
f 34/89/32 36/90/32 32/91/32 30/88/32
o Cube.005_Cube.006
v 1.738222 1.764418 -0.693411
v 1.738222 1.978836 -0.693411
v 1.738223 1.764418 1.306589
v 1.738223 1.978836 1.306589
v -1.762187 1.764418 -0.693410
v -1.762187 1.978836 -0.693410
v -1.762187 1.764418 1.306590
v -1.762187 1.978836 1.306590
v 1.654441 1.769550 -0.645542
v 1.654441 1.973704 -0.645542
v 1.654442 1.973704 1.258720
v 1.654442 1.769550 1.258720
v -1.678406 1.973704 1.258721
v -1.678406 1.769550 1.258721
v -1.678407 1.973704 -0.645541
v -1.678407 1.769550 -0.645541
vt 0.666667 0.333333
vt 0.666667 0.000000
vt 1.000000 0.000000
vt 1.000000 0.333333
vt 0.333333 0.333333
vt 0.333333 0.666667
vt 0.000000 0.666667
vt 0.000000 0.333333
vt 0.366211 0.458222
vt 0.366211 0.003111
vt 0.610352 0.003111
vt 0.610352 0.458222
vt 0.756197 0.330239
vt 0.756197 0.008427
vt 1.000338 0.008427
vt 1.000338 0.330239
vt 0.616227 0.716663
vt 0.383773 0.716663
vt 0.383773 0.283337
vt 0.616227 0.283337
vt 0.340599 0.680130
vt 0.573053 0.680130
vt 0.573053 0.986537
vt 0.340599 0.986537
vt 0.282894 0.383329
vt 0.050440 0.383329
vt 0.050440 -0.049996
vt 0.282894 -0.049996
vt 0.007978 0.674645
vt 0.325355 0.674645
vt 0.325355 0.992022
vt 0.007978 0.992022
vt 0.667969 0.698689
vt 1.001302 0.698689
vt 0.993324 0.706667
vt 0.675947 0.706667
vt 0.715086 0.897220
vt 0.959227 0.897220
vt 0.953384 0.908113
vt 0.720930 0.908113
vt 0.000000 0.000000
vt 0.007978 0.007978
vt 0.007978 0.325355
vt 0.720295 0.809220
vt 0.964435 0.809220
vt 0.958592 0.820113
vt 0.726138 0.820113
vt 0.341312 0.341312
vt 0.341312 0.658689
vt 0.964951 0.755702
vt 0.720811 0.755702
vt 0.726654 0.740298
vt 0.959108 0.740298
vt 0.902369 0.666667
vt 0.902369 0.333333
vt 0.913652 0.341312
vt 0.913652 0.658688
vn -1.000000 0.000000 0.000000
vn -0.000000 0.000000 -1.000000
vn 1.000000 0.000000 -0.000000
vn 0.000000 0.000000 1.000000
vn -0.000000 0.994300 -0.106600
vn -0.061100 0.998100 -0.000000
vn -0.061100 -0.998100 0.000000
vn 0.061100 0.998100 0.000000
vn 0.061100 -0.998100 -0.000000
vn -0.000000 -0.994300 -0.106600
vn 0.000000 0.994300 0.106600
vn 0.000000 -0.994300 0.106600
usemtl Material.004
s off
f 38/92/33 37/93/33 39/94/33 40/95/33
f 40/96/34 39/97/34 43/98/34 44/99/34
f 44/100/35 43/101/35 41/102/35 42/103/35
f 42/104/36 41/105/36 37/106/36 38/107/36
f 46/108/35 47/109/35 48/110/35 45/111/35
f 47/112/36 49/113/36 50/114/36 48/115/36
f 49/116/33 51/117/33 52/118/33 50/119/33
f 51/120/34 46/121/34 45/122/34 52/123/34
f 37/124/37 41/125/37 52/126/37 45/127/37
f 41/128/38 43/129/38 50/130/38 52/131/38
f 44/99/39 42/132/39 51/133/39 49/134/39
f 39/135/40 37/136/40 45/137/40 48/138/40
f 38/97/41 40/96/41 47/139/41 46/140/41
f 42/98/42 38/97/42 46/121/42 51/120/42
f 43/141/43 39/142/43 48/143/43 50/144/43
f 40/145/44 44/146/44 49/147/44 47/148/44
o Cube.004_Cube.005
v -1.682855 0.005916 -0.696464
v -1.653753 1.974662 -0.725566
v -1.682855 0.005916 -0.627679
v -1.653753 1.974662 -0.598576
v -1.751640 0.005916 -0.696464
v -1.780743 1.974662 -0.725566
v -1.751640 0.005916 -0.627679
v -1.780743 1.974662 -0.598576
vt 0.009697 0.736860
vt 0.009697 0.470193
vt 0.759697 0.531305
vt 0.759697 0.675747
vt 0.764422 0.694499
vt 0.764422 0.961166
vt 0.014422 0.900054
vt 0.014422 0.755612
vt 0.759115 0.248762
vt 0.759115 0.515429
vt 0.009115 0.454316
vt 0.009115 0.309874
vt 0.010690 0.288246
vt 0.010690 0.021579
vt 0.760690 0.082691
vt 0.760690 0.227134
vt 0.908332 0.156187
vt 0.908332 0.240787
vt 0.800000 0.240787
vt 0.800000 0.156187
vt 0.800000 0.000000
vt 1.000000 0.000000
vt 1.000000 0.156187
vn 0.581200 0.569600 -0.581200
vn 0.581200 0.569600 0.581200
vn 0.573400 -0.585100 0.573400
vn 0.573400 -0.585100 -0.573400
vn -0.581200 0.569600 0.581200
vn -0.573400 -0.585100 0.573400
vn -0.581200 0.569600 -0.581200
vn -0.573400 -0.585100 -0.573400
usemtl Material.005
s 1
f 54/149/45 56/150/46 55/151/47 53/152/48
f 56/153/46 60/154/49 59/155/50 55/156/47
f 60/157/49 58/158/51 57/159/52 59/160/50
f 58/161/51 54/162/45 53/163/48 57/164/52
f 53/165/48 55/166/47 59/167/50 57/168/52
f 58/169/51 60/170/49 56/171/46 54/168/45
